HIERARCHY
ROOT hip
{
  OFFSET -283.37 83.1752 17.3915
  CHANNELS 6 Xposition Yposition Zposition Zrotation Xrotation Yrotation
  JOINT abdomen
  {
    OFFSET 0 20.6881 -0.73152
    CHANNELS 3 Zrotation Xrotation Yrotation
    JOINT chest
    {
      OFFSET 0 11.7043 -0.48768
      CHANNELS 3 Zrotation Xrotation Yrotation
      JOINT neck
      {
        OFFSET 0 22.1894 -2.19456
        CHANNELS 3 Zrotation Xrotation Yrotation
        JOINT head
        {
          OFFSET -0.24384 7.07133 1.2192
          CHANNELS 3 Zrotation Xrotation Yrotation
          JOINT leftEye
          {
            OFFSET 4.14528 8.04674 8.04672
            CHANNELS 3 Zrotation Xrotation Yrotation
            End Site
            {
              OFFSET 1 0 0
            }
          }
          JOINT rightEye
          {
            OFFSET -3.6576 8.04674 8.04672
            CHANNELS 3 Zrotation Xrotation Yrotation
            End Site
            {
              OFFSET 1 0 0
            }
          }
        }
      }
      JOINT rCollar
      {
        OFFSET -2.68224 19.2634 -4.8768
        CHANNELS 3 Zrotation Xrotation Yrotation
        JOINT rShldr
        {
          OFFSET -8.77824 -1.95073 1.46304
          CHANNELS 3 Zrotation Xrotation Yrotation
          JOINT rForeArm
          {
            OFFSET -28.1742 -1.7115 0.48768
            CHANNELS 3 Zrotation Xrotation Yrotation
            JOINT rHand
            {
              OFFSET -22.5879 0.773209 7.07136
              CHANNELS 3 Zrotation Xrotation Yrotation
              JOINT rThumb1
              {
                OFFSET -1.2192 -0.487915 3.41376
                CHANNELS 3 Zrotation Xrotation Yrotation
                JOINT rThumb2
                {
                  OFFSET -3.37035 -0.52449 3.41376
                  CHANNELS 3 Zrotation Xrotation Yrotation
                  End Site
                  {
                    OFFSET -1.78271 -1.18214 1.43049
                  }
                }
              }
              JOINT rIndex1
              {
                OFFSET -7.75947 0.938293 5.60832
                CHANNELS 3 Zrotation Xrotation Yrotation
                JOINT rIndex2
                {
                  OFFSET -2.54057 -0.884171 1.56538
                  CHANNELS 3 Zrotation Xrotation Yrotation
                  End Site
                  {
                    OFFSET -1.62519 -0.234802 1.16502
                  }
                }
              }
              JOINT rMid1
              {
                OFFSET -8.24714 1.18213 3.41376
                CHANNELS 3 Zrotation Xrotation Yrotation
                JOINT rMid2
                {
                  OFFSET -3.10165 -0.590103 1.0647
                  CHANNELS 3 Zrotation Xrotation Yrotation
                  End Site
                  {
                    OFFSET -2.48547 -0.328903 0.83742
                  }
                }
              }
              JOINT rRing1
              {
                OFFSET -8.82822 0.546677 1.51678
                CHANNELS 3 Zrotation Xrotation Yrotation
                JOINT rRing2
                {
                  OFFSET -2.60934 -0.819778 -0.0198488
                  CHANNELS 3 Zrotation Xrotation Yrotation
                  End Site
                  {
                    OFFSET -2.33842 -0.294052 0.168128
                  }
                }
              }
              JOINT rPinky1
              {
                OFFSET -8.27202 -0.0477905 -0.4584
                CHANNELS 3 Zrotation Xrotation Yrotation
                JOINT rPinky2
                {
                  OFFSET -1.82734 -0.647385 -0.700984
                  CHANNELS 3 Zrotation Xrotation Yrotation
                  End Site
                  {
                    OFFSET -1.69225 -0.51767 -0.607171
                  }
                }
              }
            }
          }
        }
      }
      JOINT lCollar
      {
        OFFSET 2.68224 19.2634 -4.8768
        CHANNELS 3 Zrotation Xrotation Yrotation
        JOINT lShldr
        {
          OFFSET 8.77824 -1.95073 1.46304
          CHANNELS 3 Zrotation Xrotation Yrotation
          JOINT lForeArm
          {
            OFFSET 28.1742 -1.7115 0.48768
            CHANNELS 3 Zrotation Xrotation Yrotation
            JOINT lHand
            {
              OFFSET 22.5879 0.773209 7.07136
              CHANNELS 3 Zrotation Xrotation Yrotation
              JOINT lThumb1
              {
                OFFSET 1.2192 -0.487915 3.41376
                CHANNELS 3 Zrotation Xrotation Yrotation
                JOINT lThumb2
                {
                  OFFSET 3.37035 -0.52449 3.41376
                  CHANNELS 3 Zrotation Xrotation Yrotation
                  End Site
                  {
                    OFFSET 1.78271 -1.18214 1.43049
                  }
                }
              }
              JOINT lIndex1
              {
                OFFSET 7.75947 0.938293 5.60832
                CHANNELS 3 Zrotation Xrotation Yrotation
                JOINT lIndex2
                {
                  OFFSET 2.54057 -0.884171 1.56538
                  CHANNELS 3 Zrotation Xrotation Yrotation
                  End Site
                  {
                    OFFSET 1.62519 -0.234802 1.16502
                  }
                }
              }
              JOINT lMid1
              {
                OFFSET 8.24714 1.18213 3.41376
                CHANNELS 3 Zrotation Xrotation Yrotation
                JOINT lMid2
                {
                  OFFSET 3.10165 -0.590103 1.0647
                  CHANNELS 3 Zrotation Xrotation Yrotation
                  End Site
                  {
                    OFFSET 2.48547 -0.328903 0.83742
                  }
                }
              }
              JOINT lRing1
              {
                OFFSET 8.82822 0.546677 1.51678
                CHANNELS 3 Zrotation Xrotation Yrotation
                JOINT lRing2
                {
                  OFFSET 2.60934 -0.819778 -0.0198488
                  CHANNELS 3 Zrotation Xrotation Yrotation
                  End Site
                  {
                    OFFSET 2.33842 -0.294052 0.168128
                  }
                }
              }
              JOINT lPinky1
              {
                OFFSET 8.27202 -0.0477905 -0.4584
                CHANNELS 3 Zrotation Xrotation Yrotation
                JOINT lPinky2
                {
                  OFFSET 1.82734 -0.647385 -0.700984
                  CHANNELS 3 Zrotation Xrotation Yrotation
                  End Site
                  {
                    OFFSET 1.69225 -0.51767 -0.607171
                  }
                }
              }
            }
          }
        }
      }
    }
  }
  JOINT rButtock
  {
    OFFSET -8.77824 4.35084 1.2192
    CHANNELS 3 Zrotation Xrotation Yrotation
    JOINT rThigh
    {
      OFFSET 0 -1.70687 -2.19456
      CHANNELS 3 Zrotation Xrotation Yrotation
      JOINT rShin
      {
        OFFSET 0 -36.8199 0.73152
        CHANNELS 3 Zrotation Xrotation Yrotation
        JOINT rFoot
        {
          OFFSET 0.73152 -45.1104 -5.12064
          CHANNELS 3 Zrotation Xrotation Yrotation
          End Site
          {
            OFFSET -1.1221 -3.69964 12.103
          }
        }
      }
    }
  }
  JOINT lButtock
  {
    OFFSET 8.77824 4.35084 1.2192
    CHANNELS 3 Zrotation Xrotation Yrotation
    JOINT lThigh
    {
      OFFSET 0 -1.70687 -2.19456
      CHANNELS 3 Zrotation Xrotation Yrotation
      JOINT lShin
      {
        OFFSET 0 -36.8199 0.73152
        CHANNELS 3 Zrotation Xrotation Yrotation
        JOINT lFoot
        {
          OFFSET -0.73152 -45.1104 -5.12064
          CHANNELS 3 Zrotation Xrotation Yrotation
          End Site
          {
            OFFSET 1.1221 -3.69964 12.103
          }
        }
      }
    }
  }
}
MOTION
Frames:	4
Frame Time:	0.00833333
237.683 84.7658 31.7812 0.292818 -0.000579791 -0.00500384 -0.385198 -0.00168812 -0.0109959 -0.106234 -0.0025671 -0.018405 1.13811e-015 0 -1.30452e-016 3.37623e-015 3.18055e-015 -4.31735e-016 -0 0 0 -0 0 0 5.95039e-016 -1.35888e-018 4.96962e-017 1.38888e-014 8.07563e-017 -5.96354e-016 2.07631e-013 -5.98342e-014 0 2.38402e-012 6.57977e-014 -3.11694e-013 5.61902e-012 1.16273e-014 -6.77458e-013 9.69672e-012 1.59028e-014 -1.1617e-012 5.62402e-012 1.39149e-014 -6.9018e-013 7.73091 5.47488 0.417314 5.6183e-012 1.17283e-014 -6.71097e-013 2.90554 0.965183 0.102902 5.62757e-012 1.18277e-014 -6.73482e-013 10.2786 0.731801 0.0259123 5.61388e-012 1.15295e-014 -6.61555e-013 2.22167 -0.733487 -0.20892 4.98314e-016 -1.74713e-018 -2.48481e-016 9.97388e-015 1.80149e-016 -2.18663e-015 2.10066e-013 6.2816e-014 -5.40694e-014 2.37709e-012 -5.79706e-014 -2.48083e-013 5.61524e-012 6.74229e-015 -6.67916e-013 9.70626e-012 9.54166e-015 -1.16249e-012 5.6101e-012 9.1441e-015 -6.58375e-013 -7.73091 5.47488 -0.417314 5.61437e-012 6.85807e-015 -6.71097e-013 -2.90554 0.965183 -0.102902 5.61091e-012 6.85807e-015 -6.72687e-013 -10.2786 0.731801 -0.0259123 5.62243e-012 9.1441e-015 -6.80639e-013 -2.22167 -0.733487 0.20892 -2.03217e-016 0 -3.88251e-019 0.221682 -2.58356 -0.0280816 -0.00748982 -0.872635 -0.0651421 -0.513144 3.45577 0.129352 2.03217e-016 0 3.88251e-019 -0.807743 -4.07085 0.0653902 0.00325552 1.82139 0.0244299 0.517677 2.24911 -0.105176 
234.243 82.8657 24.3086 -11.8123 22.4764 -24.2188 2.41761 -0.687602 -0.213488 0.701286 -0.0651204 -0.109495 -1.18662 -1.08129 -0.0761284 1.796 -1.75351 0.345186 -0 0 0 -0 0 0 -2.56964e-014 -6.51427e-014 1.34583e-014 20.5592 2.47663 0.829018 -3.3656 -1.3913 5.39719 0.0501265 4.9704 0.689088 5.3828e-011 -4.69813e-010 1.04813e-009 1.0845e-010 -8.05924e-010 1.80901e-009 5.38325e-011 -4.69811e-010 1.04812e-009 7.73091 5.47488 0.417314 5.38273e-011 -4.69813e-010 1.04814e-009 2.90554 0.965183 0.102902 5.38363e-011 -4.69812e-010 1.04813e-009 10.2786 0.731801 0.0259123 5.38218e-011 -4.69812e-010 1.04814e-009 2.22167 -0.733487 -0.20892 -2.57914e-014 -6.51408e-014 1.31998e-014 -23.6519 2.19831 -0.382585 3.9578 -1.74883 -6.23482 -0.139986 8.32147 -1.12555 6.13898e-010 -2.07273e-010 -1.07876e-011 1.06005e-009 -3.6362e-010 -3.27983e-011 6.13894e-010 -2.07268e-010 -1.07809e-011 -7.73091 5.47488 -0.417314 6.13897e-010 -2.07269e-010 -1.07899e-011 -2.90554 0.965183 -0.102902 6.13893e-010 -2.07269e-010 -1.07916e-011 -10.2786 0.731801 -0.0259123 6.13903e-010 -2.07267e-010 -1.07976e-011 -2.22167 -0.733487 0.20892 -2.03217e-016 0 -3.88251e-019 3.40129 -6.0533 -0.00753336 0.00623139 5.03278 0.0443022 -0.728412 -0.358998 -2.8499 2.03217e-016 0 3.88251e-019 2.89404 -10.843 0.519011 -0.00528787 13.1078 -0.146185 0.667502 -1.04723 1.48089 
234.118 82.7985 24.1941 -3.95291 32.3443 -58.0987 5.36634 -1.43095 -0.435262 1.55733 -0.132709 -0.208539 -2.44249 -2.22832 -0.157926 3.713 -3.58687 0.706716 -0 0 0 -0 0 0 -5.61693e-014 -1.21333e-013 2.79541e-014 42.2198 5.05379 1.69679 -6.62972 -2.81457 11.0969 -0.0288412 10.2316 1.4363 1.12788e-010 -9.87362e-010 2.20246e-009 2.27291e-010 -1.69371e-009 3.8012e-009 1.12792e-010 -9.87361e-010 2.20245e-009 7.73091 5.47488 0.417314 1.12788e-010 -9.87362e-010 2.20246e-009 2.90554 0.965183 0.102902 1.12797e-010 -9.87361e-010 2.20245e-009 10.2786 0.731801 0.0259123 1.12781e-010 -9.87361e-010 2.20246e-009 2.22167 -0.733487 -0.20892 -5.62658e-014 -1.21329e-013 2.77367e-014 -48.6217 4.50547 -0.788686 7.71534 -3.51792 -12.8211 0.0829218 17.1439 -2.40229 1.28835e-009 -4.307e-010 -5.38568e-012 2.22499e-009 -7.55894e-010 -3.91992e-011 1.28834e-009 -4.30693e-010 -5.3821e-012 -7.73091 5.47488 -0.417314 1.28834e-009 -4.30693e-010 -5.38687e-012 -2.90554 0.965183 -0.102902 1.28834e-009 -4.30692e-010 -5.3888e-012 -10.2786 0.731801 -0.0259123 1.28835e-009 -4.3069e-010 -5.39264e-012 -2.22167 -0.733487 0.20892 -2.03217e-016 0 -3.88251e-019 6.75017 -9.73149 0.0079489 -0.00448067 11.27 0.162525 -1.38736 -4.35928 -6.01776 2.03217e-016 0 3.88251e-019 6.9135 -17.9324 1.01144 0.0646958 24.9305 -0.350374 1.02382 -4.58876 3.14825 
233.959 82.741 24.0614 6.53013 22.1411 -82.9464 8.00868 -2.05932 -0.618824 2.31573 -0.190225 -0.291676 -3.5685 -3.24385 -0.228711 5.45161 -5.25978 1.03945 -0 0 0 -0 0 0 -7.82791e-014 -1.95425e-013 4.02756e-014 61.4611 7.42364 2.50575 -9.32043 -4.02599 16.2279 -0.218827 14.9024 2.1312 1.50246e-010 -1.40946e-009 3.14575e-009 3.05955e-010 -2.4178e-009 5.42935e-009 1.50249e-010 -1.40946e-009 3.14574e-009 7.73091 5.47488 0.417314 1.50245e-010 -1.40946e-009 3.14575e-009 2.90554 0.965183 0.102902 1.50254e-010 -1.40946e-009 3.14575e-009 10.2786 0.731801 0.0259123 1.50238e-010 -1.40946e-009 3.14576e-009 2.22167 -0.733487 -0.20892 -7.83707e-014 -1.95419e-013 4.00963e-014 -70.8671 6.59375 -1.15455 10.7505 -4.99848 -18.7697 0.645816 24.9238 -3.68467 1.83046e-009 -6.21832e-010 -3.1027e-011 3.16073e-009 -1.09088e-009 -9.60698e-011 1.83046e-009 -6.21823e-010 -3.1026e-011 -7.73091 5.47488 -0.417314 1.83046e-009 -6.21822e-010 -3.10274e-011 -2.90554 0.965183 -0.102902 1.83046e-009 -6.21821e-010 -3.10294e-011 -10.2786 0.731801 -0.0259123 1.83046e-009 -6.21819e-010 -3.10315e-011 -2.22167 -0.733487 0.20892 -2.03217e-016 0 -3.88251e-019 9.76811 -12.9928 0.0345157 -0.0361717 16.8434 0.274437 -2.35214 -7.89507 -8.89273 2.03217e-016 0 3.88251e-019 10.6481 -24.381 1.53577 0.218377 35.6792 -0.585951 1.51759 -7.61564 4.6936 
